#N canvas 720 58 537 605 10;
#X declare -lib Gem;
#X obj 14 8 cnv 15 400 50 empty empty 5a 14 24 0 24 -175655 -66577
0;
#X text 69 16 Pure data + Gem;
#X obj 17 227 gemwin;
#X msg 17 130 create \, 1;
#X msg 25 156 0 \, destroy;
#X text 219 123 This is a render-chain.;
#X text 221 137 Always start it with gemhead.;
#X text 219 166 takes the video image from your camera;
#X text 15 67 How do we detect movement? Simply by comparing the current
frame of the video with the previous frame.;
#X obj 157 268 pix_delay 100;
#X obj 111 127 gemhead;
#X obj 111 214 pix_separator;
#X obj 199 213 pix_separator;
#X obj 111 346 pix_texture;
#X obj 111 164 pix_video;
#X floatatom 232 248 5 0 100 0 - #0-delay -;
#X msg 35 204 frame \$1;
#X floatatom 35 182 5 0 0 0 - - -;
#X text 69 29 Substract the presence from the past;
#X obj 111 377 rectangle 4 3;
#X text 293 212 separators duplicate the;
#X text 293 225 pixel information.;
#X text 291 269 delay one of the streams;
#X text 290 293 calculate the difference;
#X text 226 350 texture the pixels;
#X text 226 378 on a rectangular shape;
#X msg 32 473 direction \$1;
#X obj 32 455 tgl 15 1 empty empty empty 0 -6 0 8 -262144 -1 -1 0 1
;
#X obj 16 499 pix_compare;
#X obj 109 499 pix_subtract;
#X text 18 413 Other objects to try:;
#X obj 111 293 pix_diff;
#X text 291 249 # of frames – drag here!;
#X text 16 567 Max Neupert \, GMU - Bauhaus University Weimar 2008
- 2012;
#N canvas 1100 499 450 300 init 0;
#X obj 13 9 declare -lib Gem;
#X obj 14 43 loadbang;
#X msg 14 68 50;
#X obj 14 93 s \$0-delay;
#X connect 1 0 2 0;
#X connect 2 0 3 0;
#X restore 310 36 pd init;
#X connect 3 0 2 0;
#X connect 4 0 2 0;
#X connect 9 0 31 1;
#X connect 10 0 14 0;
#X connect 11 0 31 0;
#X connect 12 0 9 0;
#X connect 13 0 19 0;
#X connect 14 0 11 0;
#X connect 14 0 12 0;
#X connect 15 0 9 1;
#X connect 16 0 2 0;
#X connect 17 0 16 0;
#X connect 26 0 28 0;
#X connect 27 0 26 0;
#X connect 31 0 13 0;
