#N canvas 573 22 748 797 10;
#X declare -lib Gem;
#X msg 40 127 0 \, destroy;
#X obj 446 116 gemhead;
#X obj 33 150 gemwin 12;
#X obj 30 10 cnv 15 400 50 empty empty 11b 14 24 0 24 -175655 -66577
0;
#X text 94 20 Pure data + Gem;
#X obj 446 139 pix_video;
#X obj 298 425 pix_texture;
#X obj 298 381 pix_crop;
#X msg 331 359 0;
#X msg 361 359 0;
#X obj 446 160 pix_info;
#X obj 309 322 / 2;
#X obj 334 322 / 2;
#X obj 298 446 rectangle 2 1.5;
#X obj 445 425 pix_texture;
#X obj 445 380 pix_crop;
#X obj 445 446 rectangle 2 1.5;
#X obj 452 215 s \$0-xsize;
#X obj 458 194 s \$0-ysize;
#X obj 309 279 r \$0-xsize;
#X obj 334 299 r \$0-ysize;
#X obj 361 322 loadbang;
#X obj 456 330 / 2;
#X obj 481 330 / 2;
#X obj 456 287 r \$0-xsize;
#X obj 481 307 r \$0-ysize;
#X obj 298 235 separator;
#X obj 446 237 separator;
#X obj 29 693 pix_texture;
#X obj 29 381 pix_crop;
#X obj 29 715 rectangle 2 1.5;
#X msg 92 357 0;
#X obj 40 332 / 2;
#X obj 65 332 / 2;
#X obj 40 289 r \$0-xsize;
#X obj 65 309 r \$0-ysize;
#X obj 92 332 loadbang;
#X obj 30 238 separator;
#X msg 490 360 0;
#X obj 510 330 loadbang;
#X obj 170 426 pix_texture;
#X obj 170 381 pix_crop;
#X obj 170 447 rectangle 2 1.5;
#X obj 181 348 / 2;
#X obj 206 348 / 2;
#X obj 181 305 r \$0-xsize;
#X obj 206 325 r \$0-ysize;
#X obj 171 238 separator;
#X obj 170 405 translateXYZ 2 1.5 0;
#X obj 29 670 translateXYZ -2 1.5 0;
#X obj 298 404 translateXYZ -2 -1.5 0;
#X obj 445 404 translateXYZ 2 -1.5 0;
#X obj 116 185 s \$0-threshold;
#X floatatom 116 146 5 0 100 0 - - -;
#X obj 116 165 / 100;
#X obj 298 518 pix_mean_color;
#X obj 298 497 pix_movement;
#X obj 319 476 r \$0-threshold;
#X obj 298 595 +;
#X obj 313 574 +;
#X obj 298 550 unpack f f f;
#X obj 445 517 pix_mean_color;
#X obj 445 496 pix_movement;
#X obj 466 475 r \$0-threshold;
#X obj 445 591 +;
#X obj 460 570 +;
#X obj 445 546 unpack f f f;
#X obj 29 522 pix_mean_color;
#X obj 29 501 pix_movement;
#X obj 50 480 r \$0-threshold;
#X obj 41 599 +;
#X obj 56 578 +;
#X floatatom 41 643 5 0 0 0 - - -;
#X obj 41 554 unpack f f f;
#X obj 170 518 pix_mean_color;
#X obj 170 497 pix_movement;
#X obj 191 476 r \$0-threshold;
#X obj 170 592 +;
#X obj 185 571 +;
#X floatatom 170 635 5 0 0 0 - - -;
#X obj 170 547 unpack f f f;
#X obj 41 621 / 3;
#X obj 116 106 loadbang;
#X msg 116 126 4;
#X msg 33 106 create \, 1;
#X obj 170 614 / 3;
#X floatatom 298 638 5 0 0 0 - - -;
#X floatatom 445 636 5 0 0 0 - - -;
#X obj 298 616 / 3;
#X obj 445 615 / 3;
#X text 45 261 upper left;
#X text 183 263 upper right;
#X text 320 258 lower left;
#X text 458 260 lower right;
#X text 93 32 cropping image areas to analyze;
#X text 152 144 threshold for the motion detection;
#X obj 324 16 declare -lib Gem;
#X text 30 769 Max Neupert \, GMU - Bauhaus Universität Weimar 2010-2012
;
#X connect 0 0 2 0;
#X connect 1 0 5 0;
#X connect 5 0 10 0;
#X connect 6 0 13 0;
#X connect 7 0 50 0;
#X connect 8 0 7 3;
#X connect 9 0 7 4;
#X connect 10 0 26 0;
#X connect 10 0 27 0;
#X connect 10 0 37 0;
#X connect 10 0 47 0;
#X connect 10 1 17 0;
#X connect 10 2 18 0;
#X connect 11 0 7 1;
#X connect 12 0 7 2;
#X connect 13 0 56 0;
#X connect 14 0 16 0;
#X connect 15 0 51 0;
#X connect 16 0 62 0;
#X connect 19 0 11 0;
#X connect 20 0 12 0;
#X connect 21 0 8 0;
#X connect 21 0 9 0;
#X connect 22 0 15 1;
#X connect 22 0 15 3;
#X connect 23 0 15 2;
#X connect 24 0 22 0;
#X connect 25 0 23 0;
#X connect 26 0 7 0;
#X connect 27 0 15 0;
#X connect 28 0 30 0;
#X connect 29 0 68 0;
#X connect 31 0 29 3;
#X connect 32 0 29 1;
#X connect 33 0 29 2;
#X connect 33 0 29 4;
#X connect 34 0 32 0;
#X connect 35 0 33 0;
#X connect 36 0 31 0;
#X connect 37 0 29 0;
#X connect 38 0 15 4;
#X connect 39 0 38 0;
#X connect 40 0 42 0;
#X connect 41 0 48 0;
#X connect 42 0 75 0;
#X connect 43 0 41 1;
#X connect 43 0 41 3;
#X connect 44 0 41 2;
#X connect 44 0 41 4;
#X connect 45 0 43 0;
#X connect 46 0 44 0;
#X connect 47 0 41 0;
#X connect 48 0 40 0;
#X connect 49 0 28 0;
#X connect 50 0 6 0;
#X connect 51 0 14 0;
#X connect 53 0 54 0;
#X connect 54 0 52 0;
#X connect 55 1 60 0;
#X connect 56 0 55 0;
#X connect 57 0 56 1;
#X connect 58 0 88 0;
#X connect 59 0 58 1;
#X connect 60 0 58 0;
#X connect 60 1 59 0;
#X connect 60 2 59 1;
#X connect 61 1 66 0;
#X connect 62 0 61 0;
#X connect 63 0 62 1;
#X connect 64 0 89 0;
#X connect 65 0 64 1;
#X connect 66 0 64 0;
#X connect 66 1 65 0;
#X connect 66 2 65 1;
#X connect 67 0 49 0;
#X connect 67 1 73 0;
#X connect 68 0 67 0;
#X connect 69 0 68 1;
#X connect 70 0 81 0;
#X connect 71 0 70 1;
#X connect 73 0 70 0;
#X connect 73 1 71 0;
#X connect 73 2 71 1;
#X connect 74 1 80 0;
#X connect 75 0 74 0;
#X connect 76 0 75 1;
#X connect 77 0 85 0;
#X connect 78 0 77 1;
#X connect 80 0 77 0;
#X connect 80 1 78 0;
#X connect 80 2 78 1;
#X connect 81 0 72 0;
#X connect 82 0 83 0;
#X connect 83 0 53 0;
#X connect 84 0 2 0;
#X connect 85 0 79 0;
#X connect 88 0 86 0;
#X connect 89 0 87 0;
