#N canvas 635 27 686 716 10;
#X declare -lib Gem;
#X obj 28 7 cnv 15 400 50 empty empty 12b 14 24 0 24 -175655 -66577
0;
#X text 93 15 Pure data + Gem;
#X msg 43 156 0 \, destroy;
#X obj 178 120 gemhead;
#X obj 178 141 pix_video;
#X obj 40 564 pix_texture;
#X obj 40 589 rectangle 4 3;
#X obj 178 173 pix_rgba;
#X obj 35 186 gemwin;
#X obj 40 539 pix_alpha;
#X obj 178 197 alpha;
#X obj 299 284 gemmouse 1 1.14;
#X obj 269 384 pix_data;
#X obj 284 256 pix_separator;
#X obj 40 258 pix_separator;
#X obj 342 319 sel 1;
#X obj 291 415 unpack f f f;
#X obj 334 119 gemhead;
#X obj 334 211 rectangle 4 3;
#X obj 334 163 pix_texture;
#X obj 334 139 pix_image brightonbeach.jpg;
#X obj 334 187 translateXYZ 0 0 -0.001;
#X obj 126 433 hsl 100 15 0 1 0 0 empty empty empty -2 -8 0 10 -262144
-1 -1 2500 1;
#X obj 272 502 gemhead;
#X obj 272 545 colorRGB;
#X obj 272 567 translateXYZ 0 -3.5 0;
#X obj 272 588 rectangle 4 0.5;
#X text 92 28 Keying of a selected color;
#N canvas 144 538 450 300 color 0;
#X obj 11 8 inlet red;
#X obj 84 9 inlet green;
#X obj 162 9 inlet blue;
#X obj 10 168 outlet minimum;
#X obj 139 170 outlet maximum;
#X obj 139 148 pack f f f;
#X obj 11 145 pack f f f;
#X obj 11 120 + 0.1;
#X obj 48 120 + 0.1;
#X obj 84 121 + 0.1;
#X obj 139 123 - 0.1;
#X obj 176 123 - 0.1;
#X obj 212 123 - 0.1;
#X obj 212 103 f;
#X obj 257 10 inlet Q;
#X obj 257 30 t b f;
#X obj 176 102 f;
#X obj 139 103 f;
#X obj 84 99 f;
#X obj 48 98 f;
#X obj 11 99 f;
#X connect 0 0 17 0;
#X connect 0 0 20 0;
#X connect 1 0 16 0;
#X connect 1 0 19 0;
#X connect 2 0 13 0;
#X connect 2 0 18 0;
#X connect 5 0 4 0;
#X connect 6 0 3 0;
#X connect 7 0 6 0;
#X connect 8 0 6 1;
#X connect 9 0 6 2;
#X connect 10 0 5 0;
#X connect 11 0 5 1;
#X connect 12 0 5 2;
#X connect 13 0 12 0;
#X connect 14 0 15 0;
#X connect 15 0 13 0;
#X connect 15 0 16 0;
#X connect 15 0 17 0;
#X connect 15 0 20 0;
#X connect 15 0 19 0;
#X connect 15 0 18 0;
#X connect 15 1 12 1;
#X connect 15 1 11 1;
#X connect 15 1 10 1;
#X connect 15 1 9 1;
#X connect 15 1 8 1;
#X connect 15 1 7 1;
#X connect 16 0 11 0;
#X connect 17 0 10 0;
#X connect 18 0 9 0;
#X connect 19 0 8 0;
#X connect 20 0 7 0;
#X restore 78 507 pd color;
#X text 122 405 Q;
#X obj 320 341 * -1;
#X obj 320 360 + 1;
#X msg 35 130 create \, 1;
#X text 35 74 Click on the color in the Gem window which you want to
key. This Approach leads to less smooth edges.;
#X obj 324 13 declare -lib Gem;
#X text 30 673 Max Neupert \, GMU - Bauhaus University Weimar 2009
- 2012;
#X connect 2 0 8 0;
#X connect 3 0 4 0;
#X connect 4 0 7 0;
#X connect 5 0 6 0;
#X connect 7 0 10 0;
#X connect 9 0 5 0;
#X connect 10 0 13 0;
#X connect 10 0 14 0;
#X connect 11 0 12 2;
#X connect 11 1 30 0;
#X connect 11 2 15 0;
#X connect 12 1 16 0;
#X connect 13 0 12 1;
#X connect 14 0 9 0;
#X connect 15 0 12 0;
#X connect 16 0 24 1;
#X connect 16 0 28 0;
#X connect 16 1 24 2;
#X connect 16 1 28 1;
#X connect 16 2 24 3;
#X connect 16 2 28 2;
#X connect 17 0 20 0;
#X connect 19 0 21 0;
#X connect 20 0 19 0;
#X connect 21 0 18 0;
#X connect 22 0 28 3;
#X connect 23 0 24 0;
#X connect 24 0 25 0;
#X connect 25 0 26 0;
#X connect 28 0 9 3;
#X connect 28 1 9 4;
#X connect 30 0 31 0;
#X connect 31 0 12 3;
#X connect 32 0 8 0;
