#N canvas 430 124 629 646 10;
#X obj 11 18 inlet;
#X text 11 2 bang:;
#X obj 11 48 t b b;
#X msg 11 605 \; blob_ids bounds 0 \$1 \$2 -1;
#X obj 11 569 pack f f;
#X obj 11 202 f;
#X obj 11 106 arraysize blob_ids;
#X msg 74 166 0;
#X obj 11 173 until;
#X obj 68 200 + 1;
#X obj 113 254 tabread blob_ids;
#X floatatom 237 364 5 0 0 0 - - -;
#X obj 113 282 expr if ($f1 > $f2 \, $f1 \, $f2);
#X floatatom 73 456 5 0 0 0 - - -;
#X obj 11 518 + 1;
#X obj 56 515 arraysize blob_ids;
#X obj 11 230 t f f f;
#X msg 237 177 1;
#X obj 11 432 sel -1;
#X obj 11 139 t f b b f;
#X obj 11 394 expr if ($f1 + 1 >= $f2 \, $f3 \, -1);
#X obj 331 569 pack f f;
#X obj 331 202 f;
#X msg 394 166 0;
#X obj 331 173 until;
#X obj 388 200 + 1;
#X floatatom 557 364 5 0 0 0 - - -;
#X obj 433 282 expr if ($f1 > $f2 \, $f1 \, $f2);
#X floatatom 364 466 5 0 0 0 - - -;
#X obj 331 518 + 1;
#X obj 331 230 t f f f;
#X msg 557 177 1;
#X obj 331 432 sel -1;
#X obj 331 139 t f b b f;
#X obj 331 394 expr if ($f1 + 1 >= $f2 \, $f3 \, -1);
#X obj 331 106 arraysize blob_times;
#X obj 433 254 tabread blob_times;
#X obj 376 515 arraysize blob_times;
#X msg 331 605 \; blob_times bounds 0 \$1 \$2 -1;
#X connect 0 0 2 0;
#X connect 2 0 35 0;
#X connect 2 0 6 0;
#X connect 2 1 37 0;
#X connect 2 1 15 0;
#X connect 4 0 3 0;
#X connect 5 0 16 0;
#X connect 6 0 19 0;
#X connect 7 0 5 1;
#X connect 8 0 5 0;
#X connect 9 0 5 1;
#X connect 10 0 12 0;
#X connect 11 0 12 1;
#X connect 11 0 20 2;
#X connect 12 0 11 0;
#X connect 14 0 4 0;
#X connect 15 0 4 1;
#X connect 16 0 20 0;
#X connect 16 1 9 0;
#X connect 16 2 10 0;
#X connect 17 0 11 0;
#X connect 18 1 13 0;
#X connect 18 1 14 0;
#X connect 19 0 8 0;
#X connect 19 1 7 0;
#X connect 19 2 17 0;
#X connect 19 3 20 1;
#X connect 20 0 18 0;
#X connect 21 0 38 0;
#X connect 22 0 30 0;
#X connect 23 0 22 1;
#X connect 24 0 22 0;
#X connect 25 0 22 1;
#X connect 26 0 27 1;
#X connect 26 0 34 2;
#X connect 27 0 26 0;
#X connect 29 0 21 0;
#X connect 30 0 34 0;
#X connect 30 1 25 0;
#X connect 30 2 36 0;
#X connect 31 0 26 0;
#X connect 32 1 28 0;
#X connect 32 1 29 0;
#X connect 33 0 24 0;
#X connect 33 1 23 0;
#X connect 33 2 31 0;
#X connect 33 3 34 1;
#X connect 34 0 32 0;
#X connect 35 0 33 0;
#X connect 36 0 27 0;
#X connect 37 0 21 1;
