#N canvas 317 53 413 428 10;
#X obj 12 7 inlet;
#X obj 12 83 arraysize blob_ids;
#X floatatom 204 84 5 0 0 0 - - -;
#X obj 12 173 f;
#X obj 65 174 + 1;
#X obj 12 140 until;
#X msg 66 141 0;
#X obj 12 34 t b f b;
#X msg 362 83 0;
#X obj 12 350 expr if ($f1+1 >= $f2 \, $f3 \, -1);
#X obj 12 207 t f f f;
#X obj 51 243 tabread blob_ids;
#X obj 51 273 expr if ($f1 == $f2 \, 1 \, 0);
#X obj 45 400 outlet;
#X obj 64 110 t f b f;
#X obj 12 375 sel -1;
#X obj 51 302 max;
#X obj 362 171 t f f;
#X floatatom 362 128 5 0 0 0 - - -;
#X connect 0 0 7 0;
#X connect 1 0 14 0;
#X connect 2 0 12 1;
#X connect 3 0 10 0;
#X connect 4 0 3 1;
#X connect 5 0 3 0;
#X connect 6 0 3 1;
#X connect 7 0 1 0;
#X connect 7 1 2 0;
#X connect 7 2 8 0;
#X connect 8 0 18 0;
#X connect 9 0 15 0;
#X connect 10 0 9 0;
#X connect 10 1 4 0;
#X connect 10 2 11 0;
#X connect 11 0 12 0;
#X connect 12 0 16 0;
#X connect 14 0 5 0;
#X connect 14 1 6 0;
#X connect 14 2 9 1;
#X connect 15 1 13 0;
#X connect 16 0 18 0;
#X connect 17 0 9 2;
#X connect 17 1 16 1;
#X connect 18 0 17 0;
