#N canvas 544 653 383 329 10;
#X obj 70 28 inlet;
#X text 71 8 bang:;
#X msg 70 60 1;
#X obj 70 87 f;
#X obj 70 191 sel 1;
#X obj 70 131 t f f;
#X obj 103 87 +;
#X msg 25 143 1;
#X obj 97 239 outlet;
#X obj 97 213 expr if ($f1 == 0 \, $f2 \, -1);
#X obj 70 160 exists_id;
#X text 42 261 Abstraction used in 07b-multi-blobtracker-IDs.pd;
#X connect 0 0 2 0;
#X connect 2 0 3 0;
#X connect 3 0 5 0;
#X connect 4 0 7 0;
#X connect 4 1 9 0;
#X connect 5 0 10 0;
#X connect 5 1 6 1;
#X connect 5 1 9 1;
#X connect 6 0 3 0;
#X connect 7 0 6 0;
#X connect 9 0 8 0;
#X connect 10 0 4 0;
