#N canvas 0 162 356 145 10;
#X obj 30 20 r reset_time;
#X obj 106 55 realtime;
#X obj 151 5 inlet;
#X obj 106 78 outlet;
#X text 31 102 Abstraction used in 07b-multi-blobtracker-IDs.pd;
#X connect 0 0 1 0;
#X connect 1 0 3 0;
#X connect 2 0 1 1;
