#N canvas 720 172 475 541 10;
#X obj 74 9 inlet;
#X obj 281 483 outlet;
#X obj 74 169 until;
#X obj 74 141 t f b;
#X floatatom 219 83 5 0 0 0 - - -;
#X msg 296 84 -1;
#X floatatom 296 122 5 0 0 0 - - -;
#X obj 74 201 f;
#X obj 130 200 + 1;
#X msg 130 169 0;
#X obj 108 301 tabread blob_ids;
#X obj 108 357 sel -1;
#X obj 108 329 expr if ($f1 == $f2 \, $f3 \, -1);
#X obj 74 232 t f f f f;
#X obj 74 400 + 1;
#X obj 74 110 t f f;
#X floatatom 10 165 5 0 0 0 - - -;
#X obj 74 424 sel;
#X obj 74 38 t b f b;
#X obj 281 457 f;
#X text 59 506 Abstraction used in 07b-multi-blobtracker-IDs.pd;
#X obj 74 82 expr size("blob_ids");
#X connect 0 0 18 0;
#X connect 2 0 7 0;
#X connect 3 0 2 0;
#X connect 3 1 9 0;
#X connect 4 0 12 1;
#X connect 5 0 6 0;
#X connect 6 0 19 1;
#X connect 7 0 13 0;
#X connect 8 0 7 1;
#X connect 9 0 7 1;
#X connect 10 0 12 0;
#X connect 11 1 6 0;
#X connect 12 0 11 0;
#X connect 13 0 14 0;
#X connect 13 1 8 0;
#X connect 13 2 10 0;
#X connect 13 3 12 2;
#X connect 14 0 17 0;
#X connect 15 0 3 0;
#X connect 15 1 16 0;
#X connect 16 0 17 1;
#X connect 17 0 19 0;
#X connect 18 0 21 0;
#X connect 18 1 4 0;
#X connect 18 2 5 0;
#X connect 19 0 1 0;
#X connect 21 0 15 0;
