#N canvas 578 180 470 486 10;
#X obj 48 20 inlet;
#X obj 16 378 outlet;
#X obj 219 20 inlet;
#X obj 82 118 tabread blob_times;
#X obj 65 171 -;
#X obj 65 200 >;
#X obj 65 226 sel 0;
#X msg 16 286 -1;
#X obj 48 299 spigot;
#X msg 116 271 0;
#X obj 204 118 f;
#X obj 48 55 t f b f b;
#N canvas 321 573 202 161 id_of_blob_by_index 1;
#X obj 21 96 outlet;
#X obj 21 16 inlet;
#X obj 21 43 sel -1;
#X msg 21 69 -1;
#X obj 54 69 tabread blob_ids;
#X connect 1 0 2 0;
#X connect 2 0 3 0;
#X connect 2 1 4 0;
#X connect 3 0 0 0;
#X connect 4 0 0 0;
#X restore 48 328 pd id_of_blob_by_index;
#N canvas 995 510 196 178 get_time 0;
#X obj 26 22 r reset_time;
#X obj 26 103 realtime;
#X obj 113 22 inlet;
#X obj 26 126 outlet;
#X connect 0 0 1 0;
#X connect 1 0 3 0;
#X connect 2 0 1 1;
#X restore 65 139 pd get_time;
#X text 18 412 Abstraction used in 07b-multi-blobtracker-IDs.pd;
#X connect 0 0 11 0;
#X connect 2 0 10 1;
#X connect 3 0 4 1;
#X connect 4 0 5 0;
#X connect 5 0 6 0;
#X connect 6 0 7 0;
#X connect 6 1 8 1;
#X connect 7 0 1 0;
#X connect 8 0 9 0;
#X connect 8 0 12 0;
#X connect 9 0 8 1;
#X connect 10 0 5 1;
#X connect 11 0 8 0;
#X connect 11 1 13 0;
#X connect 11 2 3 0;
#X connect 11 3 10 0;
#X connect 12 0 1 0;
#X connect 13 0 4 0;
