#N canvas 382 334 435 385 10;
#N canvas 912 282 828 583 visible 0;
#X obj 36 280 translateXYZ;
#X floatatom 59 215 5 0 0 0 - - -;
#X floatatom 82 235 5 0 0 0 - - -;
#X obj 186 280 translateXYZ;
#X floatatom 209 215 5 0 0 0 - - -;
#X floatatom 232 235 5 0 0 0 - - -;
#X obj 59 154 r \$0-p1_x;
#X obj 82 174 r \$0-p1_y;
#X obj 209 154 r \$0-p2_x;
#X obj 232 174 r \$0-p2_y;
#X obj 326 280 translateXYZ;
#X floatatom 349 215 5 0 0 0 - - -;
#X floatatom 372 235 5 0 0 0 - - -;
#X obj 349 154 r \$0-p3_x;
#X obj 372 174 r \$0-p3_y;
#X obj 456 280 translateXYZ;
#X floatatom 479 215 5 0 0 0 - - -;
#X floatatom 502 235 5 0 0 0 - - -;
#X obj 479 154 r \$0-p4_x;
#X obj 502 174 r \$0-p4_y;
#N canvas 618 361 411 520 mouse_head 0;
#N canvas 493 453 450 393 scaling_windowsize 0;
#X obj 91 235 * 8;
#X obj 91 265 - 4;
#X obj 91 22 inlet;
#X obj 304 22 inlet;
#X obj 91 345 outlet;
#X obj 337 345 outlet;
#X obj 202 121 unpack;
#X obj 325 138 t f f;
#X obj 125 138 t f f;
#X obj 106 178 * 2;
#X obj 337 275 - 4;
#X obj 304 235 * 8;
#X obj 319 180 * 2;
#X obj 202 70 r windowsize;
#X connect 0 0 1 0;
#X connect 1 0 4 0;
#X connect 2 0 0 0;
#X connect 3 0 11 0;
#X connect 6 0 8 0;
#X connect 6 1 7 0;
#X connect 7 0 12 0;
#X connect 7 1 10 1;
#X connect 8 0 9 0;
#X connect 8 1 1 1;
#X connect 9 0 0 1;
#X connect 10 0 5 0;
#X connect 11 0 10 0;
#X connect 12 0 11 1;
#X connect 13 0 6 0;
#X restore 44 87 pd scaling_windowsize;
#X obj 44 34 gemmouse 1 1;
#X obj 167 129 * -1;
#X obj 44 434 s \$0-mouse_x;
#X obj 167 434 s \$0-mouse_y;
#X obj 247 103 tgl 15 0 empty empty empty 17 7 0 10 -262144 -1 -1 0
1;
#X obj 247 434 s \$0-mouse_click;
#X obj 115 176 pack;
#X obj 115 308 spigot;
#X obj 148 201 r mouse_test;
#X obj 109 130 t b f;
#X obj 195 308 spigot;
#X obj 195 392 s \$0-mouse_drag;
#X obj 115 372 s \$0-gemmouse;
#X connect 0 0 3 0;
#X connect 0 1 2 0;
#X connect 1 0 0 0;
#X connect 1 0 7 0;
#X connect 1 1 0 1;
#X connect 1 1 10 0;
#X connect 1 2 5 0;
#X connect 2 0 4 0;
#X connect 5 0 6 0;
#X connect 5 0 11 1;
#X connect 7 0 8 0;
#X connect 7 0 11 0;
#X connect 8 0 13 0;
#X connect 9 0 8 1;
#X connect 10 0 7 0;
#X connect 10 1 7 1;
#X connect 11 0 12 0;
#X restore 36 39 pd mouse_head;
#X obj 36 480 colorRGB;
#X obj 78 337 r \$0-p1_click;
#X msg 78 439 0;
#X msg 108 403 bang;
#X msg 48 439 1;
#X obj 78 378 sel 0;
#X obj 186 480 colorRGB;
#X msg 228 439 0;
#X msg 258 403 bang;
#X msg 198 439 1;
#X obj 228 378 sel 0;
#X obj 326 480 colorRGB;
#X msg 368 439 0;
#X msg 398 403 bang;
#X msg 338 439 1;
#X obj 368 378 sel 0;
#X obj 456 480 colorRGB;
#X msg 498 439 0;
#X msg 528 403 bang;
#X msg 468 439 1;
#X obj 498 378 sel 0;
#X obj 228 337 r \$0-p2_click;
#X obj 368 337 r \$0-p3_click;
#X obj 498 337 r \$0-p4_click;
#X msg 99 439 0.1;
#X msg 129 439 0.05;
#X msg 249 439 0.1;
#X msg 389 439 0.1;
#X msg 519 439 0.1;
#X msg 279 439 0.05;
#X msg 419 439 0.05;
#X msg 549 439 0.05;
#N canvas 370 44 630 576 polygon_lines 0;
#X obj 349 165 pack;
#X obj 395 185 pack;
#X obj 267 309 polygon 4;
#X obj 349 35 r \$0-p1_x;
#X obj 370 55 r \$0-p1_y;
#X obj 439 205 pack;
#X obj 485 225 pack;
#X obj 395 75 r \$0-p2_x;
#X obj 416 95 r \$0-p2_y;
#X obj 439 115 r \$0-p3_x;
#X obj 460 135 r \$0-p3_y;
#X obj 485 165 r \$0-p4_x;
#X obj 506 185 r \$0-p4_y;
#X msg 279 182 \$1 \$2 0;
#X msg 292 202 \$1 \$2 0;
#X msg 305 222 \$1 \$2 0;
#X msg 318 242 \$1 \$2 0;
#X obj 24 249 loadbang;
#X obj 267 36 alpha;
#X obj 267 -17 color 0 1 0 0.2;
#X obj 137 309 polygon 4;
#X msg 149 182 \$1 \$2 0;
#X msg 162 202 \$1 \$2 0;
#X msg 175 222 \$1 \$2 0;
#X msg 188 242 \$1 \$2 0;
#X msg 24 292 draw line;
#X obj 137 -88 pix_separator;
#X obj 267 -88 pix_separator;
#N canvas 98 47 400 489 random_color 0;
#X obj 198 302 t b f;
#X obj 294 148 sel 1;
#X msg 324 182 bang;
#X msg 294 285 0.5;
#X msg 324 285 0.2;
#X obj 56 238 / 100;
#X obj 125 238 / 100;
#X obj 195 238 / 100;
#X obj 56 67 t b b b;
#X obj 134 5 loadbang;
#X obj 56 198 + 20;
#X obj 125 198 + 20;
#X obj 195 198 + 20;
#X obj 56 148 random 80;
#X obj 125 148 random 80;
#X obj 195 148 random 80;
#X obj 56 5 r \$0-reset;
#X obj 56 456 outlet;
#X obj 56 404 pack f f f 0.2;
#X obj 294 5 r \$1-area;
#X connect 0 0 18 0;
#X connect 0 1 18 3;
#X connect 1 0 3 0;
#X connect 1 1 2 0;
#X connect 2 0 4 0;
#X connect 3 0 0 0;
#X connect 4 0 0 0;
#X connect 5 0 18 0;
#X connect 6 0 18 1;
#X connect 7 0 18 2;
#X connect 8 0 13 0;
#X connect 8 1 14 0;
#X connect 8 2 15 0;
#X connect 9 0 8 0;
#X connect 10 0 5 0;
#X connect 11 0 6 0;
#X connect 12 0 7 0;
#X connect 13 0 10 0;
#X connect 14 0 11 0;
#X connect 15 0 12 0;
#X connect 16 0 8 0;
#X connect 18 0 17 0;
#X connect 19 0 1 0;
#X restore 479 -34 pd random_color;
#X obj 137 -175 gemhead 89;
#X connect 0 0 13 0;
#X connect 0 0 21 0;
#X connect 1 0 14 0;
#X connect 1 0 22 0;
#X connect 3 0 0 0;
#X connect 4 0 0 1;
#X connect 5 0 15 0;
#X connect 5 0 23 0;
#X connect 6 0 16 0;
#X connect 6 0 24 0;
#X connect 7 0 1 0;
#X connect 8 0 1 1;
#X connect 9 0 5 0;
#X connect 10 0 5 1;
#X connect 11 0 6 0;
#X connect 12 0 6 1;
#X connect 13 0 2 1;
#X connect 14 0 2 2;
#X connect 15 0 2 3;
#X connect 16 0 2 4;
#X connect 17 0 25 0;
#X connect 18 0 2 0;
#X connect 19 0 18 0;
#X connect 21 0 20 1;
#X connect 22 0 20 2;
#X connect 23 0 20 3;
#X connect 24 0 20 4;
#X connect 25 0 20 0;
#X connect 26 0 20 0;
#X connect 27 0 19 0;
#X connect 28 0 19 1;
#X connect 29 0 26 0;
#X connect 29 0 27 0;
#X restore 36 19 pd polygon_lines;
#X obj 36 530 circle 0.1;
#X obj 186 530 circle 0.1;
#X obj 326 530 circle 0.1;
#X obj 456 530 circle 0.1;
#X obj 36 90 gemhead 90;
#X obj 186 90 gemhead 90;
#X obj 326 90 gemhead 90;
#X obj 456 90 gemhead 90;
#X connect 0 0 21 0;
#X connect 1 0 0 1;
#X connect 2 0 0 2;
#X connect 3 0 27 0;
#X connect 4 0 3 1;
#X connect 5 0 3 2;
#X connect 6 0 1 0;
#X connect 7 0 2 0;
#X connect 8 0 4 0;
#X connect 9 0 5 0;
#X connect 10 0 32 0;
#X connect 11 0 10 1;
#X connect 12 0 10 2;
#X connect 13 0 11 0;
#X connect 14 0 12 0;
#X connect 15 0 37 0;
#X connect 16 0 15 1;
#X connect 17 0 15 2;
#X connect 18 0 16 0;
#X connect 19 0 17 0;
#X connect 21 0 54 0;
#X connect 22 0 26 0;
#X connect 23 0 21 2;
#X connect 23 0 21 3;
#X connect 24 0 23 0;
#X connect 24 0 46 0;
#X connect 25 0 21 2;
#X connect 25 0 21 3;
#X connect 26 0 25 0;
#X connect 26 0 45 0;
#X connect 26 1 24 0;
#X connect 27 0 55 0;
#X connect 28 0 27 2;
#X connect 28 0 27 3;
#X connect 29 0 28 0;
#X connect 29 0 50 0;
#X connect 30 0 27 2;
#X connect 30 0 27 3;
#X connect 31 0 30 0;
#X connect 31 0 47 0;
#X connect 31 1 29 0;
#X connect 32 0 56 0;
#X connect 33 0 32 2;
#X connect 33 0 32 3;
#X connect 34 0 33 0;
#X connect 34 0 51 0;
#X connect 35 0 32 2;
#X connect 35 0 32 3;
#X connect 36 0 35 0;
#X connect 36 0 48 0;
#X connect 36 1 34 0;
#X connect 37 0 57 0;
#X connect 38 0 37 2;
#X connect 38 0 37 3;
#X connect 39 0 38 0;
#X connect 39 0 52 0;
#X connect 40 0 37 2;
#X connect 40 0 37 3;
#X connect 41 0 40 0;
#X connect 41 0 49 0;
#X connect 41 1 39 0;
#X connect 42 0 31 0;
#X connect 43 0 36 0;
#X connect 44 0 41 0;
#X connect 45 0 54 1;
#X connect 46 0 54 1;
#X connect 47 0 55 1;
#X connect 48 0 56 1;
#X connect 49 0 57 1;
#X connect 50 0 55 1;
#X connect 51 0 56 1;
#X connect 52 0 57 1;
#X connect 58 0 0 0;
#X connect 59 0 3 0;
#X connect 60 0 10 0;
#X connect 61 0 15 0;
#X restore 180 -104 pd visible;
#X obj 183 -195 bng 15 250 50 0 \$0-reset empty empty 17 7 0 10 -262144
-1 -1;
#N canvas 109 189 752 795 loadbang 0;
#X obj 49 434 s \$0-p1_x;
#X obj 79 454 s \$0-p1_y;
#X obj 159 434 s \$0-p2_x;
#X obj 189 454 s \$0-p2_y;
#X obj 279 434 s \$0-p3_x;
#X obj 309 454 s \$0-p3_y;
#X obj 389 434 s \$0-p4_x;
#X obj 419 454 s \$0-p4_y;
#X obj 37 77 s \$0-reset;
#X obj 49 213 t f f f f f f f f;
#X obj 49 166 r \$0-reset;
#X msg 49 356 -0.5;
#X msg 79 356 0.5;
#X msg 159 356 0.5;
#X msg 189 356 0.499;
#X msg 279 356 0.499;
#X msg 309 336 -0.5;
#X msg 419 336 -0.499;
#X msg 389 356 -0.499;
#X obj 37 25 del 10;
#X obj 37 -52 loadbang;
#X obj 223 60 r area_\$1;
#X obj 223 153 unpack f f f f f f f f;
#X connect 9 0 18 0;
#X connect 9 1 17 0;
#X connect 9 2 15 0;
#X connect 9 3 16 0;
#X connect 9 4 13 0;
#X connect 9 5 14 0;
#X connect 9 6 11 0;
#X connect 9 7 12 0;
#X connect 10 0 9 0;
#X connect 11 0 0 0;
#X connect 12 0 1 0;
#X connect 13 0 2 0;
#X connect 14 0 3 0;
#X connect 15 0 4 0;
#X connect 16 0 5 0;
#X connect 17 0 7 0;
#X connect 18 0 6 0;
#X connect 19 0 8 0;
#X connect 20 0 19 0;
#X connect 21 0 22 0;
#X connect 22 0 0 0;
#X connect 22 1 1 0;
#X connect 22 2 2 0;
#X connect 22 3 3 0;
#X connect 22 4 4 0;
#X connect 22 5 5 0;
#X connect 22 6 6 0;
#X connect 22 7 7 0;
#X restore 181 -57 pd loadbang;
#X obj -63 91 outlet;
#X text 199 -197 reset;
#N canvas 245 504 354 431 deformation 0;
#X floatatom 26 57 5 0 0 0 - - -;
#X floatatom 36 77 5 0 0 0 - - -;
#X floatatom 47 127 5 0 0 0 - - -;
#X floatatom 58 147 5 0 0 0 - - -;
#X floatatom 68 197 5 0 0 0 - - -;
#X floatatom 79 217 5 0 0 0 - - -;
#X floatatom 90 267 5 0 0 0 - - -;
#X floatatom 101 287 5 0 0 0 - - -;
#X text 75 61 p1;
#X text 97 133 p2;
#X text 121 202 p3;
#X text 141 272 and p4;
#X text 12 56 x;
#X text 12 76 y;
#X text 12 126 x;
#X text 12 146 y;
#X text 12 196 x;
#X text 12 216 y;
#X text 12 266 x;
#X text 12 286 y;
#N canvas 802 22 450 721 mouse_p1 0;
#X obj 134 265 >;
#X obj 194 265 <;
#X obj 134 306 &&;
#X obj 264 265 >;
#X obj 324 265 <;
#X obj 264 306 &&;
#X obj 149 165 - 0.1;
#X obj 209 165 + 0.1;
#X obj 279 165 - 0.1;
#X obj 339 165 + 0.1;
#X obj 194 323 &&;
#X obj 39 179 t f f;
#X obj 69 129 t f f;
#X obj 194 419 tgl 15 0 empty empty empty 17 7 0 10 -262144 -1 -1 0
1;
#X obj 149 90 r \$0-p1_x;
#X obj 279 89 r \$0-p1_y;
#X obj 108 367 == 1;
#X obj 108 419 tgl 15 0 empty empty empty 17 7 0 10 -262144 -1 -1 0
1;
#X obj 147 469 &&;
#X obj 39 19 r \$0-mouse_x;
#X obj 69 39 r \$0-mouse_y;
#X obj 108 59 r \$0-mouse_click;
#X obj 244 507 r \$0-mouse_x;
#X obj 334 507 r \$0-mouse_y;
#X obj 334 583 spigot;
#X obj 244 583 spigot;
#X obj 147 524 tgl 15 0 empty empty empty 17 7 0 10 -262144 -1 -1 0
1;
#X obj 244 645 outlet;
#X obj 334 645 outlet;
#X obj 147 644 s \$0-p1_click;
#X connect 0 0 2 0;
#X connect 1 0 2 1;
#X connect 2 0 10 0;
#X connect 3 0 5 0;
#X connect 4 0 5 1;
#X connect 5 0 10 1;
#X connect 6 0 0 1;
#X connect 7 0 1 1;
#X connect 8 0 3 1;
#X connect 9 0 4 1;
#X connect 10 0 13 0;
#X connect 11 0 0 0;
#X connect 11 1 1 0;
#X connect 12 0 3 0;
#X connect 12 1 4 0;
#X connect 13 0 18 1;
#X connect 14 0 7 0;
#X connect 14 0 6 0;
#X connect 15 0 8 0;
#X connect 15 0 9 0;
#X connect 16 0 17 0;
#X connect 17 0 18 0;
#X connect 18 0 26 0;
#X connect 19 0 11 0;
#X connect 20 0 12 0;
#X connect 21 0 16 0;
#X connect 22 0 25 0;
#X connect 23 0 24 0;
#X connect 24 0 28 0;
#X connect 25 0 27 0;
#X connect 26 0 24 1;
#X connect 26 0 25 1;
#X connect 26 0 29 0;
#X restore 56 33 pd mouse_p1;
#N canvas 533 120 450 721 mouse_p2 0;
#X obj 134 265 >;
#X obj 194 265 <;
#X obj 134 306 &&;
#X obj 264 265 >;
#X obj 324 265 <;
#X obj 264 306 &&;
#X obj 149 165 - 0.1;
#X obj 209 165 + 0.1;
#X obj 279 165 - 0.1;
#X obj 339 165 + 0.1;
#X obj 194 323 &&;
#X obj 39 179 t f f;
#X obj 69 129 t f f;
#X obj 194 419 tgl 15 0 empty empty empty 17 7 0 10 -262144 -1 -1 0
1;
#X obj 108 367 == 1;
#X obj 108 419 tgl 15 0 empty empty empty 17 7 0 10 -262144 -1 -1 0
1;
#X obj 147 469 &&;
#X obj 39 19 r \$0-mouse_x;
#X obj 69 39 r \$0-mouse_y;
#X obj 108 59 r \$0-mouse_click;
#X obj 224 507 r \$0-mouse_x;
#X obj 314 507 r \$0-mouse_y;
#X obj 314 583 spigot;
#X obj 224 583 spigot;
#X obj 147 524 tgl 15 0 empty empty empty 17 7 0 10 -262144 -1 -1 0
1;
#X obj 224 645 outlet;
#X obj 314 645 outlet;
#X obj 149 90 r \$0-p2_x;
#X obj 279 89 r \$0-p2_y;
#X obj 147 674 s \$0-p2_click;
#X connect 0 0 2 0;
#X connect 1 0 2 1;
#X connect 2 0 10 0;
#X connect 3 0 5 0;
#X connect 4 0 5 1;
#X connect 5 0 10 1;
#X connect 6 0 0 1;
#X connect 7 0 1 1;
#X connect 8 0 3 1;
#X connect 9 0 4 1;
#X connect 10 0 13 0;
#X connect 11 0 0 0;
#X connect 11 1 1 0;
#X connect 12 0 3 0;
#X connect 12 1 4 0;
#X connect 13 0 16 1;
#X connect 14 0 15 0;
#X connect 15 0 16 0;
#X connect 16 0 24 0;
#X connect 17 0 11 0;
#X connect 18 0 12 0;
#X connect 19 0 14 0;
#X connect 20 0 23 0;
#X connect 21 0 22 0;
#X connect 22 0 26 0;
#X connect 23 0 25 0;
#X connect 24 0 22 1;
#X connect 24 0 23 1;
#X connect 24 0 29 0;
#X connect 27 0 7 0;
#X connect 27 0 6 0;
#X connect 28 0 8 0;
#X connect 28 0 9 0;
#X restore 76 103 pd mouse_p2;
#N canvas 533 120 450 721 mouse_p3 0;
#X obj 134 265 >;
#X obj 194 265 <;
#X obj 134 306 &&;
#X obj 264 265 >;
#X obj 324 265 <;
#X obj 264 306 &&;
#X obj 149 165 - 0.1;
#X obj 209 165 + 0.1;
#X obj 279 165 - 0.1;
#X obj 339 165 + 0.1;
#X obj 194 323 &&;
#X obj 39 179 t f f;
#X obj 69 129 t f f;
#X obj 194 419 tgl 15 0 empty empty empty 17 7 0 10 -262144 -1 -1 0
1;
#X obj 108 367 == 1;
#X obj 108 419 tgl 15 0 empty empty empty 17 7 0 10 -262144 -1 -1 0
1;
#X obj 147 469 &&;
#X obj 39 19 r \$0-mouse_x;
#X obj 69 39 r \$0-mouse_y;
#X obj 108 59 r \$0-mouse_click;
#X obj 224 507 r \$0-mouse_x;
#X obj 314 507 r \$0-mouse_y;
#X obj 314 583 spigot;
#X obj 224 583 spigot;
#X obj 147 524 tgl 15 0 empty empty empty 17 7 0 10 -262144 -1 -1 0
1;
#X obj 224 645 outlet;
#X obj 314 645 outlet;
#X obj 149 90 r \$0-p3_x;
#X obj 279 89 r \$0-p3_y;
#X obj 147 664 s \$0-p3_click;
#X connect 0 0 2 0;
#X connect 1 0 2 1;
#X connect 2 0 10 0;
#X connect 3 0 5 0;
#X connect 4 0 5 1;
#X connect 5 0 10 1;
#X connect 6 0 0 1;
#X connect 7 0 1 1;
#X connect 8 0 3 1;
#X connect 9 0 4 1;
#X connect 10 0 13 0;
#X connect 11 0 0 0;
#X connect 11 1 1 0;
#X connect 12 0 3 0;
#X connect 12 1 4 0;
#X connect 13 0 16 1;
#X connect 14 0 15 0;
#X connect 15 0 16 0;
#X connect 16 0 24 0;
#X connect 17 0 11 0;
#X connect 18 0 12 0;
#X connect 19 0 14 0;
#X connect 20 0 23 0;
#X connect 21 0 22 0;
#X connect 22 0 26 0;
#X connect 23 0 25 0;
#X connect 24 0 22 1;
#X connect 24 0 23 1;
#X connect 24 0 29 0;
#X connect 27 0 7 0;
#X connect 27 0 6 0;
#X connect 28 0 8 0;
#X connect 28 0 9 0;
#X restore 96 173 pd mouse_p3;
#N canvas 533 120 450 721 mouse_p4 0;
#X obj 134 265 >;
#X obj 194 265 <;
#X obj 134 306 &&;
#X obj 264 265 >;
#X obj 324 265 <;
#X obj 264 306 &&;
#X obj 149 165 - 0.1;
#X obj 209 165 + 0.1;
#X obj 279 165 - 0.1;
#X obj 339 165 + 0.1;
#X obj 194 323 &&;
#X obj 39 179 t f f;
#X obj 69 129 t f f;
#X obj 194 419 tgl 15 0 empty empty empty 17 7 0 10 -262144 -1 -1 0
1;
#X obj 108 367 == 1;
#X obj 108 419 tgl 15 0 empty empty empty 17 7 0 10 -262144 -1 -1 0
1;
#X obj 147 469 &&;
#X obj 39 19 r \$0-mouse_x;
#X obj 69 39 r \$0-mouse_y;
#X obj 108 59 r \$0-mouse_click;
#X obj 224 507 r \$0-mouse_x;
#X obj 314 507 r \$0-mouse_y;
#X obj 314 583 spigot;
#X obj 224 583 spigot;
#X obj 147 524 tgl 15 0 empty empty empty 17 7 0 10 -262144 -1 -1 0
1;
#X obj 224 645 outlet;
#X obj 314 645 outlet;
#X obj 149 90 r \$0-p4_x;
#X obj 279 89 r \$0-p4_y;
#X obj 147 674 s \$0-p4_click;
#X connect 0 0 2 0;
#X connect 1 0 2 1;
#X connect 2 0 10 0;
#X connect 3 0 5 0;
#X connect 4 0 5 1;
#X connect 5 0 10 1;
#X connect 6 0 0 1;
#X connect 7 0 1 1;
#X connect 8 0 3 1;
#X connect 9 0 4 1;
#X connect 10 0 13 0;
#X connect 11 0 0 0;
#X connect 11 1 1 0;
#X connect 12 0 3 0;
#X connect 12 1 4 0;
#X connect 13 0 16 1;
#X connect 14 0 15 0;
#X connect 15 0 16 0;
#X connect 16 0 24 0;
#X connect 17 0 11 0;
#X connect 18 0 12 0;
#X connect 19 0 14 0;
#X connect 20 0 23 0;
#X connect 21 0 22 0;
#X connect 22 0 26 0;
#X connect 23 0 25 0;
#X connect 24 0 22 1;
#X connect 24 0 23 1;
#X connect 24 0 29 0;
#X connect 27 0 7 0;
#X connect 27 0 6 0;
#X connect 28 0 8 0;
#X connect 28 0 9 0;
#X restore 116 243 pd mouse_p4;
#N canvas 430 161 766 549 rightorder 0;
#X obj 59 314 f;
#X obj 109 314 f;
#X obj 169 314 f;
#X obj 219 314 f;
#X obj 289 314 f;
#X obj 339 314 f;
#X obj 399 314 f;
#X obj 449 314 f;
#X obj 74 236 r \$0-p1_x;
#X obj 124 256 r \$0-p1_y;
#X obj 184 236 r \$0-p2_x;
#X obj 234 256 r \$0-p2_y;
#X obj 304 236 r \$0-p3_x;
#X obj 354 256 r \$0-p3_y;
#X obj 414 236 r \$0-p4_x;
#X obj 464 256 r \$0-p4_y;
#X obj -103 297 t b b b b b b b b;
#X obj 59 484 s \$0-p1_x;
#X obj 109 474 s \$0-p1_y;
#X obj 169 484 s \$0-p2_x;
#X obj 219 474 s \$0-p2_y;
#X obj 289 484 s \$0-p3_x;
#X obj 339 474 s \$0-p3_y;
#X obj 399 484 s \$0-p4_x;
#X obj 449 474 s \$0-p4_y;
#X obj 47 126 t b f;
#X obj 97 126 t b f;
#X text -88 323 bang all;
#X text -97 343 p1_y - p4_x;
#X obj 157 126 t b f;
#X obj 207 126 t b f;
#X obj 277 126 t b f;
#X obj 327 126 t b f;
#X obj 387 126 t b f;
#X obj 437 126 t b f;
#X obj 47 46 inlet;
#X obj 97 46 inlet;
#X obj 157 46 inlet;
#X obj 207 46 inlet;
#X obj 277 46 inlet;
#X obj 327 46 inlet;
#X obj 387 46 inlet;
#X obj 437 46 inlet;
#N canvas 623 137 586 616 boundaries 0;
#X obj 45 240 spigot;
#X obj 105 240 spigot;
#X obj 165 240 spigot;
#X obj 225 240 spigot;
#X obj 295 240 spigot;
#X obj 355 240 spigot;
#X obj 415 240 spigot;
#X obj 475 240 spigot;
#X obj 45 121 t f f;
#X obj 105 121 t f f;
#X obj 165 121 t f f;
#X obj 225 121 t f f;
#X obj 295 121 t f f;
#X obj 355 121 t f f;
#X obj 415 121 t f f;
#X obj 475 121 t f f;
#X obj 45 50 inlet;
#X obj 105 50 inlet;
#X obj 165 50 inlet;
#X obj 225 50 inlet;
#X obj 295 50 inlet;
#X obj 355 50 inlet;
#X obj 415 50 inlet;
#X obj 475 50 inlet;
#X obj 78 193 <=;
#X obj 138 193 >=;
#X obj 198 193 >=;
#X obj 258 193 >=;
#X obj 328 193 >=;
#X obj 388 193 <=;
#X obj 448 193 <=;
#X obj 508 193 <=;
#X obj 45 450 spigot;
#X obj 105 450 spigot;
#X obj 165 450 spigot;
#X obj 225 450 spigot;
#X obj 295 450 spigot;
#X obj 355 450 spigot;
#X obj 415 450 spigot;
#X obj 475 450 spigot;
#X obj 45 311 t f f;
#X obj 105 311 t f f;
#X obj 165 311 t f f;
#X obj 225 311 t f f;
#X obj 295 311 t f f;
#X obj 355 311 t f f;
#X obj 415 311 t f f;
#X obj 475 311 t f f;
#X obj 78 383 !=;
#X obj 138 383 !=;
#X obj 198 383 !=;
#X obj 258 383 !=;
#X obj 328 383 !=;
#X obj 388 383 !=;
#X obj 448 383 !=;
#X obj 508 383 !=;
#X obj 45 520 outlet;
#X obj 105 520 outlet;
#X obj 165 520 outlet;
#X obj 225 520 outlet;
#X obj 295 520 outlet;
#X obj 355 520 outlet;
#X obj 415 520 outlet;
#X obj 475 520 outlet;
#X connect 0 0 40 0;
#X connect 1 0 41 0;
#X connect 2 0 42 0;
#X connect 3 0 43 0;
#X connect 4 0 44 0;
#X connect 5 0 45 0;
#X connect 6 0 46 0;
#X connect 7 0 47 0;
#X connect 8 0 0 0;
#X connect 8 1 26 1;
#X connect 8 1 24 0;
#X connect 9 0 1 0;
#X connect 9 1 25 0;
#X connect 9 1 31 1;
#X connect 10 0 2 0;
#X connect 10 0 24 1;
#X connect 10 1 26 0;
#X connect 11 0 3 0;
#X connect 11 1 27 0;
#X connect 11 1 29 1;
#X connect 12 0 4 0;
#X connect 12 1 28 0;
#X connect 12 1 30 1;
#X connect 13 0 5 0;
#X connect 13 1 27 1;
#X connect 13 1 29 0;
#X connect 14 0 6 0;
#X connect 14 1 28 1;
#X connect 14 1 30 0;
#X connect 15 0 7 0;
#X connect 15 1 25 1;
#X connect 15 1 31 0;
#X connect 16 0 8 0;
#X connect 17 0 9 0;
#X connect 18 0 10 0;
#X connect 19 0 11 0;
#X connect 20 0 12 0;
#X connect 21 0 13 0;
#X connect 22 0 14 0;
#X connect 23 0 15 0;
#X connect 24 0 0 1;
#X connect 25 0 1 1;
#X connect 26 0 2 1;
#X connect 27 0 3 1;
#X connect 28 0 4 1;
#X connect 29 0 5 1;
#X connect 30 0 6 1;
#X connect 31 0 7 1;
#X connect 32 0 56 0;
#X connect 33 0 57 0;
#X connect 34 0 58 0;
#X connect 35 0 59 0;
#X connect 36 0 60 0;
#X connect 37 0 61 0;
#X connect 38 0 62 0;
#X connect 39 0 63 0;
#X connect 40 0 32 0;
#X connect 40 1 48 0;
#X connect 40 1 54 1;
#X connect 41 0 33 0;
#X connect 41 1 49 0;
#X connect 41 1 51 1;
#X connect 42 0 34 0;
#X connect 42 1 50 0;
#X connect 42 1 52 1;
#X connect 43 0 35 0;
#X connect 43 1 51 0;
#X connect 43 1 49 1;
#X connect 44 0 36 0;
#X connect 44 0 50 1;
#X connect 44 1 52 0;
#X connect 45 0 37 0;
#X connect 45 1 53 0;
#X connect 45 1 55 1;
#X connect 46 0 38 0;
#X connect 46 1 54 0;
#X connect 46 1 48 1;
#X connect 47 0 39 0;
#X connect 47 1 55 0;
#X connect 47 1 53 1;
#X connect 48 0 32 1;
#X connect 49 0 33 1;
#X connect 50 0 34 1;
#X connect 51 0 35 1;
#X connect 52 0 36 1;
#X connect 53 0 37 1;
#X connect 54 0 38 1;
#X connect 55 0 39 1;
#X restore 227 398 pd boundaries;
#X connect 0 0 43 0;
#X connect 1 0 43 1;
#X connect 2 0 43 2;
#X connect 3 0 43 3;
#X connect 4 0 43 4;
#X connect 5 0 43 5;
#X connect 6 0 43 6;
#X connect 7 0 43 7;
#X connect 8 0 0 1;
#X connect 9 0 1 1;
#X connect 10 0 2 1;
#X connect 11 0 3 1;
#X connect 12 0 4 1;
#X connect 13 0 5 1;
#X connect 14 0 6 1;
#X connect 15 0 7 1;
#X connect 16 0 6 0;
#X connect 16 1 7 0;
#X connect 16 2 4 0;
#X connect 16 3 5 0;
#X connect 16 4 2 0;
#X connect 16 5 3 0;
#X connect 16 6 0 0;
#X connect 16 7 1 0;
#X connect 25 0 16 0;
#X connect 25 1 0 1;
#X connect 26 0 16 0;
#X connect 26 1 1 1;
#X connect 29 0 16 0;
#X connect 29 1 2 1;
#X connect 30 0 16 0;
#X connect 30 1 3 1;
#X connect 31 0 16 0;
#X connect 31 1 4 1;
#X connect 32 0 16 0;
#X connect 32 1 5 1;
#X connect 33 0 16 0;
#X connect 33 1 6 1;
#X connect 34 0 16 0;
#X connect 34 1 7 1;
#X connect 35 0 25 0;
#X connect 36 0 26 0;
#X connect 37 0 29 0;
#X connect 38 0 30 0;
#X connect 39 0 31 0;
#X connect 40 0 32 0;
#X connect 41 0 33 0;
#X connect 42 0 34 0;
#X connect 43 0 17 0;
#X connect 43 1 18 0;
#X connect 43 2 19 0;
#X connect 43 3 20 0;
#X connect 43 4 21 0;
#X connect 43 5 22 0;
#X connect 43 6 23 0;
#X connect 43 7 24 0;
#X restore 26 362 pd rightorder;
#X obj 193 -3 r area_\$1;
#X obj 193 40 unpack f f f f f f f f;
#X connect 0 0 24 0;
#X connect 1 0 24 1;
#X connect 2 0 24 2;
#X connect 3 0 24 3;
#X connect 4 0 24 4;
#X connect 5 0 24 5;
#X connect 6 0 24 6;
#X connect 7 0 24 7;
#X connect 20 0 0 0;
#X connect 20 1 1 0;
#X connect 21 0 2 0;
#X connect 21 1 3 0;
#X connect 22 0 4 0;
#X connect 22 1 5 0;
#X connect 23 0 6 0;
#X connect 23 1 7 0;
#X connect 25 0 26 0;
#X connect 26 0 0 0;
#X connect 26 1 1 0;
#X connect 26 2 2 0;
#X connect 26 3 3 0;
#X connect 26 4 4 0;
#X connect 26 5 5 0;
#X connect 26 6 6 0;
#X connect 26 7 7 0;
#X restore 180 -81 pd deformation;
#N canvas 1028 277 340 643 p-1/2 0;
#X obj 32 264 /;
#X obj 32 157 -;
#X obj 32 298 /;
#X obj 155 298 /;
#X obj 32 413 +;
#X obj 155 264 /;
#X obj 155 157 +;
#X obj 155 324 + 1;
#X obj 155 352 t b f;
#N canvas 493 453 450 393 scaling_windowsize 0;
#X obj 18 232 * 8;
#X obj 18 279 - 4;
#X obj 18 19 inlet;
#X obj 117 17 inlet;
#X obj 18 342 outlet;
#X obj 117 340 outlet;
#X obj 33 147 unpack;
#X obj 132 188 t f f;
#X obj 33 189 t f f;
#X obj 33 209 * 2;
#X obj 117 286 - 4;
#X obj 117 230 * 8;
#X obj 132 209 * 2;
#X obj 33 96 r windowsize;
#X connect 0 0 1 0;
#X connect 1 0 4 0;
#X connect 2 0 0 0;
#X connect 3 0 11 0;
#X connect 6 0 8 0;
#X connect 6 1 7 0;
#X connect 7 0 12 0;
#X connect 7 1 10 1;
#X connect 8 0 9 0;
#X connect 8 1 1 1;
#X connect 9 0 0 1;
#X connect 10 0 5 0;
#X connect 11 0 10 0;
#X connect 12 0 11 1;
#X connect 13 0 6 0;
#X restore 32 95 pd scaling_windowsize;
#X obj 47 130 r \$0-p1_x;
#X obj 170 130 r \$0-p1_y;
#X obj 69 193 cnv 15 125 40 empty empty empty 20 12 0 14 -162280 -66577
0;
#N canvas 164 370 368 462 hypothenusis 0;
#X obj 45 113 -;
#X obj 45 269 *;
#X obj 85 113 -;
#X obj 85 269 *;
#X obj 45 293 +;
#X obj 45 313 sqrt;
#X obj 45 135 t f f;
#X obj 85 135 t f f;
#X text 176 92 delta x*2 + delta y*2 = H*2;
#X obj 85 62 r \$0-p2_y;
#X obj 100 88 r \$0-p1_y;
#X obj 45 12 r \$0-p2_x;
#X obj 60 37 r \$0-p1_x;
#X obj 158 370 cnv 15 80 40 empty empty empty 20 12 0 14 -162280 -66577
0;
#N canvas 343 306 233 367 sinus 0;
#X obj 18 109 /;
#X obj 18 75 f;
#X obj 18 55 t b f;
#X obj 64 110 /;
#X obj 64 76 f;
#X obj 64 56 t b f;
#X obj 18 -74 t f f;
#X obj 18 209 outlet;
#X obj 64 210 outlet;
#X text 131 179 sinus;
#X text 112 116 delta / hypo;
#X text 142 149 =;
#X obj 18 -104 inlet;
#X obj 78 -104 inlet;
#X obj 124 -103 inlet;
#X connect 0 0 7 0;
#X connect 1 0 0 0;
#X connect 2 0 1 0;
#X connect 2 1 0 1;
#X connect 3 0 8 0;
#X connect 4 0 3 0;
#X connect 5 0 4 0;
#X connect 5 1 3 1;
#X connect 6 0 2 0;
#X connect 6 1 5 0;
#X connect 12 0 6 0;
#X connect 13 0 1 1;
#X connect 14 0 4 1;
#X restore 171 383 pd sinus;
#X obj 171 420 outlet;
#X obj 216 420 outlet;
#X text 265 418 sinus alpha;
#X obj 45 244 t f f;
#X obj 85 244 t f f;
#X text -7 134 delta x;
#X text 125 134 delta y;
#X obj 45 334 t f f;
#X text 89 418 comment;
#X obj 45 420 outlet hypothenusis;
#X connect 0 0 6 0;
#X connect 1 0 4 0;
#X connect 2 0 7 0;
#X connect 3 0 4 1;
#X connect 4 0 5 0;
#X connect 5 0 22 0;
#X connect 6 0 18 0;
#X connect 6 1 14 1;
#X connect 7 0 19 0;
#X connect 7 1 14 2;
#X connect 9 0 2 0;
#X connect 10 0 2 1;
#X connect 11 0 0 0;
#X connect 12 0 0 1;
#X connect 14 0 15 0;
#X connect 14 1 16 0;
#X connect 18 0 1 0;
#X connect 18 1 1 1;
#X connect 19 0 3 0;
#X connect 19 1 3 1;
#X connect 22 0 24 0;
#X connect 22 1 14 0;
#X restore 83 205 pd hypothenusis;
#X obj 32 608 outlet;
#X obj 32 554 < 1;
#X obj 57 554 > 1;
#X obj 32 46 unpack;
#X obj 32 467 list prepend;
#X obj 32 505 route 0 1;
#N canvas 477 424 202 271 angle-relation 0;
#X obj 38 152 -;
#X obj 101 67 t b f;
#X obj 38 231 outlet;
#X obj 38 33 r \$0-p1_y;
#X obj 101 34 r \$0-p2_y;
#X obj 38 181 < 0;
#X connect 0 0 5 0;
#X connect 1 0 0 0;
#X connect 1 1 0 1;
#X connect 3 0 0 0;
#X connect 4 0 1 0;
#X connect 5 0 2 0;
#X restore 101 444 pd angle-relation;
#X obj 32 16 inlet;
#X obj 83 261 t f f;
#X connect 0 0 2 0;
#X connect 1 0 0 0;
#X connect 2 0 4 0;
#X connect 3 0 7 0;
#X connect 4 0 18 0;
#X connect 5 0 3 0;
#X connect 6 0 5 0;
#X connect 7 0 8 0;
#X connect 8 0 4 0;
#X connect 8 1 4 1;
#X connect 9 0 1 0;
#X connect 9 1 6 0;
#X connect 10 0 1 1;
#X connect 11 0 6 1;
#X connect 13 0 22 0;
#X connect 13 1 0 1;
#X connect 13 2 5 1;
#X connect 15 0 14 0;
#X connect 16 0 14 0;
#X connect 17 0 9 0;
#X connect 17 1 9 1;
#X connect 18 0 19 0;
#X connect 19 0 15 0;
#X connect 19 1 16 0;
#X connect 20 0 18 1;
#X connect 21 0 17 0;
#X connect 22 0 2 1;
#X connect 22 1 3 1;
#X restore -63 -153 pd p-1/2;
#N canvas 1006 41 361 654 p-2/3 0;
#X obj 31 285 /;
#X obj 31 175 -;
#X obj 31 319 /;
#X obj 148 319 /;
#X obj 31 424 +;
#X obj 148 285 /;
#X obj 147 175 +;
#X obj 148 345 + 1;
#X obj 148 373 t b f;
#N canvas 493 453 450 393 scaling_windowsize 0;
#X obj 91 235 * 8;
#X obj 91 265 - 4;
#X obj 91 22 inlet;
#X obj 304 22 inlet;
#X obj 91 345 outlet;
#X obj 337 345 outlet;
#X obj 202 121 unpack;
#X obj 325 138 t f f;
#X obj 125 138 t f f;
#X obj 106 178 * 2;
#X obj 337 275 - 4;
#X obj 304 235 * 8;
#X obj 319 180 * 2;
#X obj 202 70 r windowsize;
#X connect 0 0 1 0;
#X connect 1 0 4 0;
#X connect 2 0 0 0;
#X connect 3 0 11 0;
#X connect 6 0 8 0;
#X connect 6 1 7 0;
#X connect 7 0 12 0;
#X connect 7 1 10 1;
#X connect 8 0 9 0;
#X connect 8 1 1 1;
#X connect 9 0 0 1;
#X connect 10 0 5 0;
#X connect 11 0 10 0;
#X connect 12 0 11 1;
#X connect 13 0 6 0;
#X restore 31 96 pd scaling_windowsize;
#X obj 62 218 cnv 15 120 40 empty empty empty 20 12 0 14 -162280 -66577
0;
#X obj 46 138 r \$0-p2_x;
#X obj 162 138 r \$0-p2_y;
#X obj 31 620 outlet;
#X obj 31 566 < 1;
#X obj 56 566 > 1;
#X obj 31 47 unpack;
#X obj 31 493 list prepend;
#X obj 31 523 route 0 1;
#N canvas 621 546 196 228 angle-relation 0;
#X obj 38 33 r \$0-p2_x;
#X obj 82 53 r \$0-p3_x;
#X obj 38 152 -;
#X obj 38 120 f;
#X obj 82 86 t b f;
#X obj 38 181 > 0;
#X obj 38 231 outlet;
#X connect 0 0 3 0;
#X connect 1 0 4 0;
#X connect 2 0 5 0;
#X connect 3 0 2 0;
#X connect 4 0 3 0;
#X connect 4 1 2 1;
#X connect 5 0 6 0;
#X restore 100 452 pd angle-relation;
#N canvas 460 173 419 525 hypothenusis 0;
#X obj 64 145 -;
#X obj 64 266 *;
#X obj 104 145 -;
#X obj 104 266 *;
#X obj 64 303 +;
#X obj 64 333 sqrt;
#X obj 64 175 t f f;
#X obj 104 175 t f f;
#X text 195 82 delta x*2 + delta y*2 = H*2;
#X obj 222 377 cnv 15 80 40 empty empty empty 20 12 0 14 -162280 -66577
0;
#N canvas 328 532 306 389 sinus 0;
#X obj 49 133 /;
#X obj 37 96 f;
#X obj 37 50 t b f;
#X obj 199 133 /;
#X obj 187 96 f;
#X obj 187 50 t b f;
#X obj 37 -79 t f f;
#X obj 49 233 outlet;
#X obj 199 233 outlet;
#X text 118 206 sinus;
#X text 99 143 delta / hypo;
#X text 129 176 =;
#X obj 37 -109 inlet;
#X obj 52 -8 inlet;
#X obj 202 -8 inlet;
#X connect 0 0 7 0;
#X connect 1 0 0 0;
#X connect 2 0 1 0;
#X connect 2 1 0 1;
#X connect 3 0 8 0;
#X connect 4 0 3 0;
#X connect 5 0 4 0;
#X connect 5 1 3 1;
#X connect 6 0 2 0;
#X connect 6 1 5 0;
#X connect 12 0 6 0;
#X connect 13 0 1 1;
#X connect 14 0 4 1;
#X restore 235 390 pd sinus;
#X obj 64 473 outlet;
#X obj 235 474 outlet;
#X obj 280 474 outlet;
#X text 11 144 delta x;
#X text 135 144 delta y;
#X text 329 472 sinus alpha;
#X obj 79 -16 r \$0-p2_x;
#X obj 64 14 r \$0-p3_x;
#X obj 119 44 r \$0-p2_y;
#X obj 104 74 r \$0-p3_y;
#X obj 64 225 t f f;
#X obj 104 225 t f f;
#X text 109 472 hypothenusis;
#X connect 0 0 6 0;
#X connect 1 0 4 0;
#X connect 2 0 7 0;
#X connect 3 0 4 1;
#X connect 4 0 5 0;
#X connect 5 0 10 0;
#X connect 5 0 11 0;
#X connect 6 0 21 0;
#X connect 6 1 10 1;
#X connect 7 0 22 0;
#X connect 7 1 10 2;
#X connect 10 0 12 0;
#X connect 10 1 13 0;
#X connect 17 0 0 1;
#X connect 18 0 0 0;
#X connect 19 0 2 1;
#X connect 20 0 2 0;
#X connect 21 0 1 0;
#X connect 21 1 1 1;
#X connect 22 0 3 0;
#X connect 22 1 3 1;
#X restore 76 230 pd hypothenusis;
#X obj 31 7 inlet;
#X connect 0 0 2 0;
#X connect 1 0 0 0;
#X connect 2 0 4 0;
#X connect 3 0 7 0;
#X connect 4 0 17 0;
#X connect 5 0 3 0;
#X connect 6 0 5 0;
#X connect 7 0 8 0;
#X connect 8 0 4 0;
#X connect 8 1 4 1;
#X connect 9 0 1 0;
#X connect 9 1 6 0;
#X connect 11 0 1 1;
#X connect 12 0 6 1;
#X connect 14 0 13 0;
#X connect 15 0 13 0;
#X connect 16 0 9 0;
#X connect 16 1 9 1;
#X connect 17 0 18 0;
#X connect 18 0 14 0;
#X connect 18 1 15 0;
#X connect 19 0 17 1;
#X connect 20 0 3 1;
#X connect 20 0 2 1;
#X connect 20 1 0 1;
#X connect 20 2 5 1;
#X connect 21 0 16 0;
#X restore -3 -153 pd p-2/3;
#N canvas 516 28 345 673 p-3/4 0;
#X obj 64 296 /;
#X obj 64 179 -;
#X obj 64 330 /;
#X obj 180 330 /;
#X obj 64 445 +;
#X obj 180 296 /;
#X obj 179 179 +;
#X obj 180 356 + 1;
#X obj 180 384 t b f;
#N canvas 493 453 450 393 scaling_windowsize 0;
#X obj 91 235 * 8;
#X obj 91 265 - 4;
#X obj 91 22 inlet;
#X obj 304 22 inlet;
#X obj 91 345 outlet;
#X obj 337 345 outlet;
#X obj 202 121 unpack;
#X obj 325 138 t f f;
#X obj 125 138 t f f;
#X obj 106 178 * 2;
#X obj 337 275 - 4;
#X obj 304 235 * 8;
#X obj 319 180 * 2;
#X obj 202 70 r windowsize;
#X connect 0 0 1 0;
#X connect 1 0 4 0;
#X connect 2 0 0 0;
#X connect 3 0 11 0;
#X connect 6 0 8 0;
#X connect 6 1 7 0;
#X connect 7 0 12 0;
#X connect 7 1 10 1;
#X connect 8 0 9 0;
#X connect 8 1 1 1;
#X connect 9 0 0 1;
#X connect 10 0 5 0;
#X connect 11 0 10 0;
#X connect 12 0 11 1;
#X connect 13 0 6 0;
#X restore 64 97 pd scaling_windowsize;
#X obj 94 219 cnv 15 120 40 empty empty empty 20 12 0 14 -162280 -66577
0;
#X obj 79 139 r \$0-p3_x;
#X obj 194 139 r \$0-p3_y;
#X obj 64 640 outlet;
#X obj 64 586 < 1;
#X obj 89 586 > 1;
#X obj 64 48 unpack;
#X obj 64 513 list prepend;
#N canvas 477 424 196 264 angle-relation 0;
#X obj 38 152 -;
#X obj 38 120 f;
#X obj 82 86 t b f;
#X obj 38 231 outlet;
#X obj 38 33 r \$0-p3_y;
#X obj 82 53 r \$0-p4_y;
#X obj 38 181 > 0;
#X connect 0 0 6 0;
#X connect 1 0 0 0;
#X connect 2 0 1 0;
#X connect 2 1 0 1;
#X connect 4 0 1 0;
#X connect 5 0 2 0;
#X connect 6 0 3 0;
#X restore 133 462 pd angle-relation;
#X obj 64 543 route 0 1;
#N canvas 809 152 419 504 hypothenusis 0;
#X obj 64 145 -;
#X obj 64 266 *;
#X obj 104 145 -;
#X obj 104 266 *;
#X obj 64 303 +;
#X obj 64 333 sqrt;
#X obj 64 175 t f f;
#X obj 104 175 t f f;
#X text 195 132 delta x*2 + delta y*2 = H*2;
#X obj 222 377 cnv 15 80 40 empty empty empty 20 12 0 14 -162280 -66577
0;
#N canvas 642 532 306 389 sinus 0;
#X obj 49 133 /;
#X obj 37 96 f;
#X obj 37 50 t b f;
#X floatatom 49 191 5 0 0 0 - - -;
#X obj 199 133 /;
#X obj 187 96 f;
#X obj 187 50 t b f;
#X floatatom 199 191 5 0 0 0 - - -;
#X obj 37 -79 t f f;
#X obj 49 233 outlet;
#X obj 199 233 outlet;
#X text 118 206 sinus;
#X text 99 143 delta / hypo;
#X text 129 176 =;
#X obj 37 -109 inlet;
#X obj 52 -8 inlet;
#X obj 202 -8 inlet;
#X connect 0 0 3 0;
#X connect 1 0 0 0;
#X connect 2 0 1 0;
#X connect 2 1 0 1;
#X connect 3 0 9 0;
#X connect 4 0 7 0;
#X connect 5 0 4 0;
#X connect 6 0 5 0;
#X connect 6 1 4 1;
#X connect 7 0 10 0;
#X connect 8 0 2 0;
#X connect 8 1 6 0;
#X connect 14 0 8 0;
#X connect 15 0 1 1;
#X connect 16 0 5 1;
#X restore 235 390 pd sinus;
#X obj 64 443 outlet;
#X obj 235 444 outlet;
#X obj 280 444 outlet;
#X text 14 174 delta x;
#X text 144 175 delta y;
#X text 329 442 sinus alpha;
#X obj 79 4 r \$0-p3_x;
#X obj 64 34 r \$0-p4_x;
#X obj 119 64 r \$0-p3_y;
#X obj 104 94 r \$0-p4_y;
#X obj 64 225 t f f;
#X obj 104 225 t f f;
#X text 105 443 hypothenusis;
#X connect 0 0 6 0;
#X connect 1 0 4 0;
#X connect 2 0 7 0;
#X connect 3 0 4 1;
#X connect 4 0 5 0;
#X connect 5 0 11 0;
#X connect 5 0 10 0;
#X connect 6 0 21 0;
#X connect 6 1 10 1;
#X connect 7 0 22 0;
#X connect 7 1 10 2;
#X connect 10 0 12 0;
#X connect 10 1 13 0;
#X connect 17 0 0 1;
#X connect 18 0 0 0;
#X connect 19 0 2 1;
#X connect 20 0 2 0;
#X connect 21 0 1 0;
#X connect 21 1 1 1;
#X connect 22 0 3 0;
#X connect 22 1 3 1;
#X restore 108 231 pd hypothenusis;
#X obj 64 18 inlet;
#X connect 0 0 2 0;
#X connect 1 0 0 0;
#X connect 2 0 4 0;
#X connect 3 0 7 0;
#X connect 4 0 17 0;
#X connect 5 0 3 0;
#X connect 6 0 5 0;
#X connect 7 0 8 0;
#X connect 8 0 4 0;
#X connect 8 1 4 1;
#X connect 9 0 1 0;
#X connect 9 1 6 0;
#X connect 11 0 1 1;
#X connect 12 0 6 1;
#X connect 14 0 13 0;
#X connect 15 0 13 0;
#X connect 16 0 9 0;
#X connect 16 1 9 1;
#X connect 17 0 19 0;
#X connect 18 0 17 1;
#X connect 19 0 14 0;
#X connect 19 1 15 0;
#X connect 20 0 3 1;
#X connect 20 0 2 1;
#X connect 20 1 0 1;
#X connect 20 2 5 1;
#X connect 21 0 16 0;
#X restore 57 -153 pd p-3/4;
#N canvas 869 31 361 675 p-4/1 0;
#X obj 104 296 /;
#X obj 104 179 -;
#X obj 104 330 /;
#X obj 210 330 /;
#X obj 104 435 +;
#X obj 210 296 /;
#X obj 210 179 +;
#X obj 210 356 + 1;
#X obj 210 384 t b f;
#N canvas 493 453 450 393 scaling_windowsize 0;
#X obj 91 235 * 8;
#X obj 91 265 - 4;
#X obj 91 22 inlet;
#X obj 304 22 inlet;
#X obj 91 345 outlet;
#X obj 337 345 outlet;
#X obj 202 121 unpack;
#X obj 325 138 t f f;
#X obj 125 138 t f f;
#X obj 106 178 * 2;
#X obj 337 275 - 4;
#X obj 304 235 * 8;
#X obj 319 180 * 2;
#X obj 202 70 r windowsize;
#X connect 0 0 1 0;
#X connect 1 0 4 0;
#X connect 2 0 0 0;
#X connect 3 0 11 0;
#X connect 6 0 8 0;
#X connect 6 1 7 0;
#X connect 7 0 12 0;
#X connect 7 1 10 1;
#X connect 8 0 9 0;
#X connect 8 1 1 1;
#X connect 9 0 0 1;
#X connect 10 0 5 0;
#X connect 11 0 10 0;
#X connect 12 0 11 1;
#X connect 13 0 6 0;
#X restore 104 97 pd scaling_windowsize;
#X obj 124 219 cnv 15 120 40 empty empty empty 20 12 0 14 -162280 -66577
0;
#X obj 225 139 r \$0-p4_y;
#X obj 119 139 r \$0-p4_x;
#X obj 104 634 outlet;
#X obj 104 580 < 1;
#X obj 129 580 > 1;
#X obj 104 48 unpack;
#N canvas 1354 242 419 489 hypothenusis 0;
#X obj 54 155 -;
#X obj 54 276 *;
#X obj 94 155 -;
#X obj 94 276 *;
#X obj 54 313 +;
#X obj 54 343 sqrt;
#X obj 54 185 t f f;
#X obj 94 185 t f f;
#X text 205 110 delta x*2 + delta y*2 = H*2;
#X obj 212 387 cnv 15 80 40 empty empty empty 20 12 0 14 -162280 -66577
0;
#N canvas 955 532 306 345 sinus 0;
#X obj 49 113 /;
#X obj 37 76 f;
#X obj 37 30 t b f;
#X obj 199 113 /;
#X obj 187 76 f;
#X obj 187 30 t b f;
#X obj 37 -79 t f f;
#X obj 49 213 outlet;
#X obj 199 213 outlet;
#X text 118 186 sinus;
#X text 99 123 delta / hypo;
#X text 129 156 =;
#X obj 37 -109 inlet;
#X obj 52 -28 inlet;
#X obj 202 -28 inlet;
#X connect 0 0 7 0;
#X connect 1 0 0 0;
#X connect 2 0 1 0;
#X connect 2 1 0 1;
#X connect 3 0 8 0;
#X connect 4 0 3 0;
#X connect 5 0 4 0;
#X connect 5 1 3 1;
#X connect 6 0 2 0;
#X connect 6 1 5 0;
#X connect 12 0 6 0;
#X connect 13 0 1 1;
#X connect 14 0 4 1;
#X restore 225 400 pd sinus;
#X obj 54 463 outlet;
#X obj 225 464 outlet;
#X obj 270 464 outlet;
#X text 1 155 delta x;
#X text 122 155 delta y;
#X text 319 462 sinus alpha;
#X obj 119 4 r \$0-p4_x;
#X obj 54 4 r \$0-p1_x;
#X obj 259 4 r \$0-p4_y;
#X obj 196 4 r \$0-p1_y;
#X obj 259 34 t b f;
#X obj 119 34 t b f;
#X obj 54 225 t f f;
#X obj 94 225 t f f;
#X text 95 462 hypothenusis;
#X connect 0 0 6 0;
#X connect 1 0 4 0;
#X connect 2 0 7 0;
#X connect 3 0 4 1;
#X connect 4 0 5 0;
#X connect 5 0 10 0;
#X connect 5 0 11 0;
#X connect 6 0 23 0;
#X connect 6 1 10 1;
#X connect 7 0 24 0;
#X connect 7 1 10 2;
#X connect 10 0 12 0;
#X connect 10 1 13 0;
#X connect 17 0 22 0;
#X connect 18 0 0 0;
#X connect 19 0 21 0;
#X connect 20 0 2 0;
#X connect 21 0 2 0;
#X connect 21 1 2 1;
#X connect 22 0 0 0;
#X connect 22 1 0 1;
#X connect 23 0 1 0;
#X connect 23 1 1 1;
#X connect 24 0 3 0;
#X connect 24 1 3 1;
#X restore 138 231 pd hypothenusis;
#N canvas 477 424 196 264 angle-relation 0;
#X obj 38 152 -;
#X obj 38 120 f;
#X obj 82 86 t b f;
#X obj 38 231 outlet;
#X obj 38 33 r \$0-p4_x;
#X obj 82 53 r \$0-p1_x;
#X obj 38 181 < 0;
#X connect 0 0 6 0;
#X connect 1 0 0 0;
#X connect 2 0 1 0;
#X connect 2 1 0 1;
#X connect 4 0 1 0;
#X connect 5 0 2 0;
#X connect 6 0 3 0;
#X restore 173 466 pd angle-relation;
#X obj 104 507 list prepend;
#X obj 104 537 route 0 1;
#X obj 104 18 inlet;
#X connect 0 0 2 0;
#X connect 1 0 0 0;
#X connect 2 0 4 0;
#X connect 3 0 7 0;
#X connect 4 0 19 0;
#X connect 5 0 3 0;
#X connect 6 0 5 0;
#X connect 7 0 8 0;
#X connect 8 0 4 0;
#X connect 8 1 4 1;
#X connect 9 0 1 0;
#X connect 9 1 6 0;
#X connect 11 0 6 1;
#X connect 12 0 1 1;
#X connect 14 0 13 0;
#X connect 15 0 13 0;
#X connect 16 0 9 0;
#X connect 16 1 9 1;
#X connect 17 0 3 1;
#X connect 17 0 2 1;
#X connect 17 1 0 1;
#X connect 17 2 5 1;
#X connect 18 0 19 1;
#X connect 19 0 20 0;
#X connect 20 0 14 0;
#X connect 20 1 15 0;
#X connect 21 0 16 0;
#X restore 117 -153 pd p-4/1;
#X obj -63 38 change;
#N canvas 392 269 400 602 preset 0;
#X msg 69 443 -1.056 1.936 1.616 -0.208 0.688 -1.024 -1.072 -1.008
;
#X obj 69 286 pack f f f f f f f f;
#X obj 69 32 r \$0-p1_x;
#X obj 85 52 r \$0-p1_y;
#X obj 102 72 r \$0-p2_x;
#X obj 119 92 r \$0-p2_y;
#X obj 135 112 r \$0-p3_x;
#X obj 152 132 r \$0-p3_y;
#X obj 169 152 r \$0-p4_x;
#X obj 186 172 r \$0-p4_y;
#X obj 69 504 prepend \$1;
#X obj 69 551 s area_preset;
#X obj 270 288 r area_save;
#X msg 69 357 set \$1 \$2 \$3 \$4 \$5 \$6 \$7 \$8;
#X obj 270 418 delay;
#X obj 297 371 \$1;
#X obj 297 323 loadbang;
#X connect 0 0 10 0;
#X connect 1 0 13 0;
#X connect 2 0 1 0;
#X connect 3 0 1 1;
#X connect 4 0 1 2;
#X connect 5 0 1 3;
#X connect 6 0 1 4;
#X connect 7 0 1 5;
#X connect 8 0 1 6;
#X connect 9 0 1 7;
#X connect 10 0 11 0;
#X connect 12 0 14 0;
#X connect 13 0 0 0;
#X connect 14 0 0 0;
#X connect 15 0 14 1;
#X connect 16 0 15 0;
#X restore 180 -125 pd preset;
#X obj 183 -219 r area_reset_\$1;
#X obj -63 -222 inlet;
#X obj -25 -221 r \$0-gemmouse;
#X obj -48 67 s \$1-area;
#X obj -63 -199 t l l l l;
#X obj 60 -89 +;
#X obj -63 -86 +;
#X obj -63 -20 +;
#X obj -63 12 == 4;
#X connect 6 0 18 0;
#X connect 7 0 18 1;
#X connect 8 0 17 0;
#X connect 9 0 17 1;
#X connect 10 0 15 0;
#X connect 10 0 3 0;
#X connect 12 0 1 0;
#X connect 13 0 16 0;
#X connect 14 0 16 0;
#X connect 16 0 6 0;
#X connect 16 1 7 0;
#X connect 16 2 8 0;
#X connect 16 3 9 0;
#X connect 17 0 19 1;
#X connect 18 0 19 0;
#X connect 19 0 20 0;
#X connect 20 0 10 0;
