#N canvas 305 453 654 466 10;
#X obj 56 30 list split 8;
#X obj 56 64 unpack f f f f f f f f;
#X obj 52 178 gemhead 80;
#X obj 52 244 rectangle 0.6 0.008;
#X obj 52 267 rectangle 0.008 0.6;
#X obj 52 219 colorRGB 1 0.5 1;
#X obj 52 198 translateXYZ;
#X obj 127 102 * 8;
#X obj 126 126 - 4;
#X obj 162 102 * -6;
#X obj 161 126 + 3;
#X obj 55 6 inlet;
#X obj 224 62 outlet;
#X obj 222 96 r blobcount;
#X obj 222 118 > \$1;
#X obj 353 287 loadbang;
#X obj 298 392 text3d \$1;
#X obj 301 151 gemhead 90;
#X obj 301 193 translateXYZ;
#X msg 349 366 4;
#X obj 301 222 translateXYZ 0.2 0.2 0;
#X obj 301 250 colorRGB 0 1 0.5;
#X obj 13 130 send data;
#X obj 13 104 list prepend \$1;
#X msg 316 319 font Vera.ttf;
#X text 263 22 abstraction used in 07-multi-blobtracker.pd;
#X connect 0 0 1 0;
#X connect 0 1 12 0;
#X connect 1 0 7 0;
#X connect 1 1 9 0;
#X connect 1 2 23 0;
#X connect 2 0 6 0;
#X connect 3 0 4 0;
#X connect 5 0 3 0;
#X connect 6 0 5 0;
#X connect 7 0 8 0;
#X connect 8 0 6 1;
#X connect 8 0 18 1;
#X connect 9 0 10 0;
#X connect 10 0 6 2;
#X connect 10 0 18 2;
#X connect 11 0 0 0;
#X connect 13 0 14 0;
#X connect 14 0 2 0;
#X connect 14 0 17 0;
#X connect 15 0 24 0;
#X connect 15 0 19 0;
#X connect 17 0 18 0;
#X connect 18 0 20 0;
#X connect 19 0 16 1;
#X connect 20 0 21 0;
#X connect 21 0 16 0;
#X connect 23 0 22 0;
#X connect 24 0 16 0;
